<mxfile host="app.diagrams.net" modified="2020-11-16T18:12:00.395Z" agent="5.0 (Windows)" etag="anr0GP1hc6_uMT7OvlL-" version="13.9.9" type="github">
  <diagram id="zFNmyJO_FlhUSclRaMOV" name="Page-1">
    <mxGraphModel dx="1422" dy="791" grid="1" gridSize="10" guides="1" tooltips="1" connect="1" arrows="1" fold="1" page="1" pageScale="1" pageWidth="827" pageHeight="1169" math="0" shadow="0">
      <root>
        <mxCell id="0" />
        <mxCell id="1" parent="0" />
        <mxCell id="RGaNZwbY-GCQRheisd1l-4" value="" style="outlineConnect=0;fontColor=#232F3E;gradientColor=none;fillColor=#277116;strokeColor=none;dashed=0;verticalLabelPosition=bottom;verticalAlign=top;align=center;html=1;fontSize=12;fontStyle=0;aspect=fixed;pointerEvents=1;shape=mxgraph.aws4.hardware_board;" parent="1" vertex="1">
          <mxGeometry x="160" y="370" width="78" height="78" as="geometry" />
        </mxCell>
        <mxCell id="RGaNZwbY-GCQRheisd1l-16" style="edgeStyle=orthogonalEdgeStyle;rounded=0;orthogonalLoop=1;jettySize=auto;html=1;endArrow=none;endFill=0;exitX=0.5;exitY=1;exitDx=0;exitDy=0;exitPerimeter=0;" parent="1" source="RGaNZwbY-GCQRheisd1l-6" target="RGaNZwbY-GCQRheisd1l-4" edge="1">
          <mxGeometry relative="1" as="geometry" />
        </mxCell>
        <mxCell id="RGaNZwbY-GCQRheisd1l-17" style="edgeStyle=orthogonalEdgeStyle;rounded=0;orthogonalLoop=1;jettySize=auto;html=1;endArrow=none;endFill=0;" parent="1" source="RGaNZwbY-GCQRheisd1l-6" target="RGaNZwbY-GCQRheisd1l-8" edge="1">
          <mxGeometry relative="1" as="geometry" />
        </mxCell>
        <mxCell id="RGaNZwbY-GCQRheisd1l-18" style="edgeStyle=orthogonalEdgeStyle;rounded=0;orthogonalLoop=1;jettySize=auto;html=1;exitX=0.5;exitY=1;exitDx=0;exitDy=0;exitPerimeter=0;endArrow=none;endFill=0;" parent="1" source="RGaNZwbY-GCQRheisd1l-6" target="RGaNZwbY-GCQRheisd1l-9" edge="1">
          <mxGeometry relative="1" as="geometry" />
        </mxCell>
        <mxCell id="RGaNZwbY-GCQRheisd1l-19" style="edgeStyle=orthogonalEdgeStyle;rounded=0;orthogonalLoop=1;jettySize=auto;html=1;endArrow=none;endFill=0;" parent="1" source="RGaNZwbY-GCQRheisd1l-6" target="RGaNZwbY-GCQRheisd1l-13" edge="1">
          <mxGeometry relative="1" as="geometry" />
        </mxCell>
        <mxCell id="RGaNZwbY-GCQRheisd1l-6" value="" style="verticalAlign=top;verticalLabelPosition=bottom;labelPosition=center;align=center;html=1;outlineConnect=0;fillColor=#647687;strokeColor=#314354;gradientDirection=north;strokeWidth=1;shape=mxgraph.networks.switch;fontColor=#ffffff;" parent="1" vertex="1">
          <mxGeometry x="288" y="255" width="140" height="43" as="geometry" />
        </mxCell>
        <mxCell id="RGaNZwbY-GCQRheisd1l-8" value="" style="outlineConnect=0;fontColor=#232F3E;gradientColor=none;fillColor=#277116;strokeColor=none;dashed=0;verticalLabelPosition=bottom;verticalAlign=top;align=center;html=1;fontSize=12;fontStyle=0;aspect=fixed;pointerEvents=1;shape=mxgraph.aws4.hardware_board;" parent="1" vertex="1">
          <mxGeometry x="288" y="370" width="78" height="78" as="geometry" />
        </mxCell>
        <mxCell id="RGaNZwbY-GCQRheisd1l-9" value="" style="outlineConnect=0;fontColor=#232F3E;gradientColor=none;fillColor=#277116;strokeColor=none;dashed=0;verticalLabelPosition=bottom;verticalAlign=top;align=center;html=1;fontSize=12;fontStyle=0;aspect=fixed;pointerEvents=1;shape=mxgraph.aws4.hardware_board;" parent="1" vertex="1">
          <mxGeometry x="520" y="370" width="78" height="78" as="geometry" />
        </mxCell>
        <mxCell id="RGaNZwbY-GCQRheisd1l-13" value="" style="pointerEvents=1;shadow=0;dashed=0;html=1;strokeColor=none;fillColor=#505050;labelPosition=center;verticalLabelPosition=bottom;verticalAlign=top;outlineConnect=0;align=center;shape=mxgraph.office.servers.database_server_blue;" parent="1" vertex="1">
          <mxGeometry x="313" y="110" width="90" height="107" as="geometry" />
        </mxCell>
        <mxCell id="RGaNZwbY-GCQRheisd1l-20" value="" style="pointerEvents=1;shadow=0;dashed=0;html=1;strokeColor=none;fillColor=#505050;labelPosition=center;verticalLabelPosition=bottom;verticalAlign=top;outlineConnect=0;align=center;shape=mxgraph.office.communications.xmpp_service;" parent="1" vertex="1">
          <mxGeometry x="238" y="110" width="58" height="52" as="geometry" />
        </mxCell>
        <mxCell id="RGaNZwbY-GCQRheisd1l-21" value="MQTT&#xa;protocol" style="outlineConnect=0;fontColor=#232F3E;gradientColor=none;strokeColor=#232F3E;fillColor=#ffffff;dashed=0;verticalLabelPosition=bottom;verticalAlign=top;align=center;html=1;fontSize=12;fontStyle=0;aspect=fixed;shape=mxgraph.aws4.resourceIcon;resIcon=mxgraph.aws4.mqtt_protocol;" parent="1" vertex="1">
          <mxGeometry x="160" y="102" width="60" height="60" as="geometry" />
        </mxCell>
      </root>
    </mxGraphModel>
  </diagram>
</mxfile>
